<svg width="716" height="107" viewBox="0 0 716 107" fill="none" xmlns="http://www.w3.org/2000/svg">
<rect y="6" width="58" height="100" rx="29" fill="#6A6A6A"/>
<path d="M19 34H39M29 24V44" stroke="white" stroke-width="5" stroke-linecap="round"/>
<circle cx="18.5" cy="75.5" r="5.5" fill="white"/>
<circle cx="35.5" cy="83.5" r="5.5" fill="white"/>
<path d="M113.77 84.29C108.917 84.29 104.833 83.4267 101.52 81.7C98.2067 80.02 95.5467 77.78 93.54 74.98C91.58 72.18 90.1567 69.1233 89.27 65.81C88.3833 62.4967 87.94 59.2067 87.94 55.94C87.94 52.0667 88.57 48.24 89.83 44.46C91.09 40.68 92.98 37.25 95.5 34.17C98.0667 31.09 101.24 28.6167 105.02 26.75C108.847 24.8833 113.303 23.95 118.39 23.95C122.683 23.95 126.44 24.58 129.66 25.84C132.88 27.0533 135.633 28.5467 137.92 30.32C140.253 32.0467 142.12 33.68 143.52 35.22L134.77 44.67C133.463 43.13 132.063 41.6833 130.57 40.33C129.123 38.9767 127.397 37.88 125.39 37.04C123.383 36.2 120.91 35.78 117.97 35.78C114.797 35.78 112.067 36.3633 109.78 37.53C107.493 38.65 105.627 40.1667 104.18 42.08C102.733 43.9933 101.66 46.14 100.96 48.52C100.307 50.9 99.98 53.35 99.98 55.87C99.98 58.8567 100.47 61.61 101.45 64.13C102.477 66.65 103.993 68.68 106 70.22C108.053 71.76 110.597 72.53 113.63 72.53C117.363 72.53 120.443 71.6667 122.87 69.94C125.297 68.2133 126.977 65.74 127.91 62.52C125.903 62.66 123.967 62.8467 122.1 63.08C120.28 63.2667 118.647 63.4767 117.2 63.71L116.01 52.37C118.763 51.7633 121.937 51.32 125.53 51.04C129.17 50.7133 132.647 50.55 135.96 50.55C140.533 50.55 143.963 50.83 146.25 51.39L145.97 62.87C144.99 62.59 143.427 62.38 141.28 62.24C141.28 63.2667 141.28 64.34 141.28 65.46C141.327 66.58 141.35 67.7233 141.35 68.89C141.35 72.11 141.303 75.2833 141.21 78.41C141.117 81.5367 141.023 84.0333 140.93 85.9L128.96 85.62C129.007 85.0133 129.077 84.08 129.17 82.82C129.31 81.56 129.45 80.1367 129.59 78.55C128.003 80.23 125.927 81.6067 123.36 82.68C120.84 83.7533 117.643 84.29 113.77 84.29ZM162.696 85.97L150.726 83.73C152.966 74.6767 155.3 66.4867 157.726 59.16C160.2 51.8333 162.743 45.5567 165.356 40.33C167.97 35.1033 170.63 31.09 173.336 28.29C176.09 25.4433 178.843 24.02 181.596 24.02C187.15 24.02 192.26 29.1767 196.926 39.49C201.593 49.7567 205.56 64.6433 208.826 84.15L196.436 85.83C195.876 82.75 195.27 79.6 194.616 76.38C193.963 73.1133 193.286 69.94 192.586 66.86C191.466 66.8133 190.253 66.79 188.946 66.79C186.66 66.79 184.233 66.8367 181.666 66.93C179.146 67.0233 176.65 67.1867 174.176 67.42C171.75 67.6067 169.486 67.8167 167.386 68.05C166.5 71.0367 165.636 74.07 164.796 77.15C164.003 80.1833 163.303 83.1233 162.696 85.97ZM175.576 45.09C174.55 47.2833 173.173 50.83 171.446 55.73C173.453 55.4967 175.576 55.3333 177.816 55.24C180.056 55.1 182.25 55.03 184.396 55.03C186.216 55.03 187.966 55.0767 189.646 55.17C188.993 52.79 188.363 50.6667 187.756 48.8C187.196 46.9333 186.683 45.4633 186.216 44.39C185.236 41.87 184.373 40.0967 183.626 39.07C182.88 37.9967 182.11 37.46 181.316 37.46C180.476 37.46 179.636 38.02 178.796 39.14C177.956 40.2133 176.883 42.1967 175.576 45.09ZM213.388 86.11C213.248 81.49 213.178 77.0567 213.178 72.81C213.178 65.1567 213.411 58.2267 213.878 52.02C214.344 45.8133 215.021 40.54 215.908 36.2C216.328 34.1933 216.911 32.2567 217.658 30.39C218.451 28.5233 219.548 27.0067 220.948 25.84C222.394 24.6267 224.284 24.02 226.618 24.02C228.904 24.02 230.841 24.6267 232.428 25.84C234.014 27.0067 235.298 28.43 236.278 30.11C237.304 31.79 238.051 33.4 238.518 34.94C239.731 38.58 240.758 42.22 241.598 45.86C242.438 49.5 243.184 52.9767 243.838 56.29C244.304 53.8633 244.841 51.32 245.448 48.66C246.054 45.9533 246.661 43.41 247.268 41.03C247.874 38.6033 248.434 36.5967 248.948 35.01C251.328 27.6833 254.991 24.02 259.938 24.02C262.691 24.02 265.024 25.0233 266.938 27.03C268.851 28.99 270.251 31.8367 271.138 35.57C271.558 37.25 271.978 39.7 272.398 42.92C272.864 46.14 273.284 49.9667 273.658 54.4C274.078 58.7867 274.428 63.64 274.708 68.96C275.034 74.28 275.291 79.9267 275.478 85.9L263.158 85.62C263.158 83.1467 263.088 80.2767 262.948 77.01C262.854 73.7433 262.691 70.36 262.458 66.86C262.271 63.3133 262.038 59.86 261.758 56.5C261.524 53.14 261.268 50.1067 260.988 47.4C260.754 44.6933 260.521 42.5467 260.288 40.96C260.054 39.3267 259.844 38.51 259.658 38.51C259.611 38.51 259.354 39.35 258.888 41.03C258.468 42.6633 257.931 44.8567 257.278 47.61C256.671 50.3633 255.994 53.3967 255.248 56.71C254.501 60.0233 253.754 63.36 253.008 66.72C252.308 70.0333 251.678 73.1133 251.118 75.96C250.558 78.76 250.114 81.0467 249.788 82.82L238.798 83.1C238.238 80.4867 237.561 77.6167 236.768 74.49C236.021 71.3167 235.228 68.0967 234.388 64.83C233.594 61.5167 232.801 58.3433 232.008 55.31C231.214 52.23 230.468 49.4767 229.768 47.05C229.114 44.6233 228.578 42.71 228.158 41.31C227.738 39.8633 227.481 39.14 227.388 39.14C227.201 39.14 226.991 40.1667 226.758 42.22C226.571 44.2267 226.384 46.9567 226.198 50.41C226.011 53.8633 225.848 57.76 225.708 62.1C225.614 66.44 225.568 70.92 225.568 75.54C225.568 77.7333 225.568 79.74 225.568 81.56C225.614 83.38 225.661 84.8733 225.708 86.04L213.388 86.11ZM306.519 86.18C302.972 86.18 299.775 85.9233 296.929 85.41C294.129 84.9433 291.749 84.01 289.789 82.61C287.829 81.2567 286.335 79.25 285.309 76.59C284.282 73.93 283.769 70.4533 283.769 66.16C283.769 63.0333 283.932 59.79 284.259 56.43C284.585 53.07 284.982 49.8267 285.449 46.7C285.962 43.5267 286.452 40.7033 286.919 38.23C285.985 38.37 285.192 38.51 284.539 38.65L283.209 27.52C285.495 27.1 288.132 26.75 291.119 26.47C294.152 26.1433 297.349 25.8633 300.709 25.63C304.115 25.3967 307.499 25.2333 310.859 25.14C314.219 25 317.369 24.93 320.309 24.93C322.642 24.93 324.765 24.9767 326.679 25.07C328.639 25.1167 330.249 25.21 331.509 25.35L330.949 37.04C329.689 36.8067 327.985 36.6433 325.839 36.55C323.692 36.41 321.289 36.34 318.629 36.34C315.502 36.34 312.165 36.41 308.619 36.55C305.072 36.69 301.689 36.8533 298.469 37.04C298.095 39 297.769 41.0067 297.489 43.06C297.209 45.1133 296.952 47.1433 296.719 49.15C299.425 48.7767 302.389 48.4967 305.609 48.31C308.875 48.0767 312.119 47.9133 315.339 47.82C318.559 47.68 321.452 47.61 324.019 47.61C325.512 47.61 326.842 47.6333 328.009 47.68C329.175 47.68 330.132 47.7267 330.879 47.82L330.599 59.3C329.992 59.2533 329.152 59.23 328.079 59.23C327.052 59.1833 325.839 59.16 324.439 59.16C322.432 59.16 320.192 59.2067 317.719 59.3C315.245 59.3467 312.679 59.44 310.019 59.58C307.405 59.6733 304.862 59.8133 302.389 60C299.915 60.14 297.675 60.3267 295.669 60.56C295.482 63.1733 295.389 65.2733 295.389 66.86C295.389 69.1467 295.692 70.8267 296.299 71.9C296.905 72.9733 297.909 73.6733 299.309 74C300.755 74.28 302.645 74.42 304.979 74.42C309.132 74.42 313.589 74.07 318.349 73.37C323.155 72.67 327.892 71.5733 332.559 70.08L333.329 82.26C327.729 83.8 322.642 84.8267 318.069 85.34C313.542 85.9 309.692 86.18 306.519 86.18ZM346.27 85.83C346.13 82.6567 346.06 79.1567 346.06 75.33C346.06 71.6433 346.13 67.7233 346.27 63.57C346.41 59.4167 346.62 55.2167 346.9 50.97C347.18 46.6767 347.553 42.5 348.02 38.44C347.273 38.6267 346.55 38.8133 345.85 39C345.196 39.14 344.59 39.3033 344.03 39.49L340.46 28.36C351.753 25.7 361.156 24.37 368.67 24.37C383.93 24.37 391.56 30.18 391.56 41.8C391.56 47.26 389.74 51.6 386.1 54.82C382.46 57.9933 377.116 60 370.07 60.84C374.316 64.4333 378.586 67.3967 382.88 69.73C387.22 72.0167 391.606 73.9533 396.04 75.54L388.34 85.83C385.866 84.9433 383.276 83.7067 380.57 82.12C377.863 80.5333 375.18 78.7833 372.52 76.87C369.86 74.9567 367.316 73.02 364.89 71.06C362.51 69.1 360.386 67.28 358.52 65.6C358.473 68.82 358.426 72.0867 358.38 75.4C358.38 78.6667 358.38 82.05 358.38 85.55L357.96 85.97C356.186 85.97 354.273 85.97 352.22 85.97C350.213 86.0167 348.393 86.11 346.76 86.25L346.27 85.83ZM368.04 35.5C366.733 35.5 365.38 35.57 363.98 35.71C362.58 35.8033 361.18 35.9433 359.78 36.13C359.593 38.7433 359.43 41.3333 359.29 43.9C359.15 46.42 359.033 48.94 358.94 51.46C360.993 51.4133 363.21 51.2967 365.59 51.11C368.016 50.8767 370.303 50.4567 372.45 49.85C374.596 49.1967 376.346 48.2633 377.7 47.05C379.1 45.8367 379.8 44.2267 379.8 42.22C379.8 39.8867 378.843 38.1833 376.93 37.11C375.016 36.0367 372.053 35.5 368.04 35.5ZM408.508 86.67C406.734 86.67 405.264 86.2733 404.098 85.48C402.931 84.6867 402.068 83.66 401.508 82.4C400.948 81.14 400.668 79.8333 400.668 78.48C400.668 75.9133 401.484 73.9533 403.118 72.6C404.751 71.2 406.711 70.5 408.998 70.5C411.331 70.5 413.174 71.2 414.528 72.6C415.881 74 416.558 75.8667 416.558 78.2C416.558 81.1867 415.741 83.3333 414.108 84.64C412.521 85.9933 410.654 86.67 408.508 86.67ZM449.739 86.6C444.045 86.6 439.099 85.34 434.899 82.82C430.699 80.3467 427.455 76.8467 425.169 72.32C422.882 67.7933 421.739 62.45 421.739 56.29C421.739 53.9567 422.019 51.3667 422.579 48.52C423.185 45.6267 424.142 42.7567 425.449 39.91C426.755 37.0167 428.505 34.38 430.699 32C432.892 29.62 435.575 27.7067 438.749 26.26C441.922 24.7667 445.655 24.02 449.949 24.02C453.635 24.02 456.855 24.4867 459.609 25.42C462.362 26.3067 464.742 27.45 466.749 28.85C468.755 30.2033 470.412 31.6267 471.719 33.12C473.072 34.6133 474.145 35.99 474.939 37.25C475.732 38.4633 476.315 39.35 476.689 39.91L466.539 47.68C465.512 45.7667 464.299 43.9 462.899 42.08C461.499 40.2133 459.772 38.6733 457.719 37.46C455.665 36.2467 453.122 35.64 450.089 35.64C446.962 35.64 444.372 36.34 442.319 37.74C440.265 39.14 438.632 40.9133 437.419 43.06C436.252 45.2067 435.435 47.4933 434.969 49.92C434.502 52.3 434.269 54.5167 434.269 56.57C434.269 58.7633 434.502 60.9333 434.969 63.08C435.435 65.2267 436.229 67.1867 437.349 68.96C438.515 70.7333 440.055 72.1567 441.969 73.23C443.929 74.2567 446.379 74.77 449.319 74.77C452.585 74.77 455.245 74.1867 457.299 73.02C459.399 71.8533 461.149 70.22 462.549 68.12C463.949 65.9733 465.255 63.4767 466.469 60.63L477.949 65.81C475.895 70.0567 473.585 73.7433 471.019 76.87C468.452 79.9967 465.442 82.4 461.989 84.08C458.535 85.76 454.452 86.6 449.739 86.6ZM514.111 85.69C509.724 85.69 505.734 84.8733 502.141 83.24C498.548 81.6533 495.444 79.4367 492.831 76.59C490.218 73.7433 488.211 70.5 486.811 66.86C485.411 63.22 484.711 59.37 484.711 55.31C484.711 51.5767 485.271 47.9133 486.391 44.32C487.511 40.68 489.214 37.39 491.501 34.45C493.788 31.4633 496.681 29.0833 500.181 27.31C503.728 25.5367 507.904 24.65 512.711 24.65C517.704 24.65 522.044 25.5133 525.731 27.24C529.418 28.92 532.451 31.1833 534.831 34.03C537.211 36.8767 538.984 40.0967 540.151 43.69C541.318 47.2833 541.901 50.97 541.901 54.75C541.901 59.2767 541.224 63.43 539.871 67.21C538.518 70.99 536.604 74.28 534.131 77.08C531.658 79.8333 528.718 81.9567 525.311 83.45C521.904 84.9433 518.171 85.69 514.111 85.69ZM514.111 74C516.911 74 519.501 73.3233 521.881 71.97C524.261 70.57 526.174 68.4 527.621 65.46C529.068 62.52 529.791 58.6933 529.791 53.98C529.791 49.92 528.998 46.5833 527.411 43.97C525.824 41.3567 523.771 39.42 521.251 38.16C518.731 36.9 516.094 36.27 513.341 36.27C510.214 36.27 507.578 36.83 505.431 37.95C503.284 39.07 501.558 40.5867 500.251 42.5C498.944 44.3667 498.011 46.4667 497.451 48.8C496.891 51.1333 496.611 53.5367 496.611 56.01C496.611 58.4367 497.078 60.7467 498.011 62.94C498.944 65.0867 500.204 67 501.791 68.68C503.424 70.3133 505.291 71.62 507.391 72.6C509.491 73.5333 511.731 74 514.111 74ZM548.69 86.11C548.55 81.49 548.48 77.0567 548.48 72.81C548.48 65.1567 548.714 58.2267 549.18 52.02C549.647 45.8133 550.324 40.54 551.21 36.2C551.63 34.1933 552.214 32.2567 552.96 30.39C553.754 28.5233 554.85 27.0067 556.25 25.84C557.697 24.6267 559.587 24.02 561.92 24.02C564.207 24.02 566.144 24.6267 567.73 25.84C569.317 27.0067 570.6 28.43 571.58 30.11C572.607 31.79 573.354 33.4 573.82 34.94C575.034 38.58 576.06 42.22 576.9 45.86C577.74 49.5 578.487 52.9767 579.14 56.29C579.607 53.8633 580.144 51.32 580.75 48.66C581.357 45.9533 581.964 43.41 582.57 41.03C583.177 38.6033 583.737 36.5967 584.25 35.01C586.63 27.6833 590.294 24.02 595.24 24.02C597.994 24.02 600.327 25.0233 602.24 27.03C604.154 28.99 605.554 31.8367 606.44 35.57C606.86 37.25 607.28 39.7 607.7 42.92C608.167 46.14 608.587 49.9667 608.96 54.4C609.38 58.7867 609.73 63.64 610.01 68.96C610.337 74.28 610.594 79.9267 610.78 85.9L598.46 85.62C598.46 83.1467 598.39 80.2767 598.25 77.01C598.157 73.7433 597.994 70.36 597.76 66.86C597.574 63.3133 597.34 59.86 597.06 56.5C596.827 53.14 596.57 50.1067 596.29 47.4C596.057 44.6933 595.824 42.5467 595.59 40.96C595.357 39.3267 595.147 38.51 594.96 38.51C594.914 38.51 594.657 39.35 594.19 41.03C593.77 42.6633 593.234 44.8567 592.58 47.61C591.974 50.3633 591.297 53.3967 590.55 56.71C589.804 60.0233 589.057 63.36 588.31 66.72C587.61 70.0333 586.98 73.1133 586.42 75.96C585.86 78.76 585.417 81.0467 585.09 82.82L574.1 83.1C573.54 80.4867 572.864 77.6167 572.07 74.49C571.324 71.3167 570.53 68.0967 569.69 64.83C568.897 61.5167 568.104 58.3433 567.31 55.31C566.517 52.23 565.77 49.4767 565.07 47.05C564.417 44.6233 563.88 42.71 563.46 41.31C563.04 39.8633 562.784 39.14 562.69 39.14C562.504 39.14 562.294 40.1667 562.06 42.22C561.874 44.2267 561.687 46.9567 561.5 50.41C561.314 53.8633 561.15 57.76 561.01 62.1C560.917 66.44 560.87 70.92 560.87 75.54C560.87 77.7333 560.87 79.74 560.87 81.56C560.917 83.38 560.964 84.8733 561.01 86.04L548.69 86.11Z" fill="#6A6A6A"/>
</svg>
