<svg width="250" height="250" viewBox="0 0 250 250" fill="none" xmlns="http://www.w3.org/2000/svg">
<path d="M72.4894 24.9664C78.9909 2.09478 111.498 2.59569 116.5 24.9664L118 223C113.164 248.002 81.5317 250.238 73 222.748C57.9975 223.144 44.9259 211.276 47.3313 194.448C26.3264 192.945 14.976 173.409 20.4772 149.567C1.83538 142.206 -1.50436 116.257 18.9768 104.706C11.6038 89.4285 18.6758 70.6502 34.5353 64.7096C26.7463 42.9338 49.5886 17.9128 72.4894 24.9664Z" fill="black"/>
<path d="M72.4894 24.9664C78.9909 2.09478 111.498 2.59569 116.5 24.9664L118 223C113.164 248.002 81.5317 250.238 73 222.748M87.2962 34.6651C61.1305 6.73897 25.0316 38.1399 34.5353 64.7096M43.286 77.2431C38.9445 73.3937 36.1122 69.1182 34.5353 64.7096M34.5353 64.7096C18.6758 70.6502 11.6038 89.4284 18.9768 104.706M27.9789 115.803C23.8951 112.552 20.9294 108.752 18.9768 104.706M18.9768 104.706C-1.50436 116.257 1.83538 142.206 20.4772 149.567M34.6651 151.369C29.1451 151.912 24.5955 151.193 20.4772 149.567M20.4772 149.567C14.976 173.409 26.3264 192.945 47.3313 194.448M49.9841 185.431C40.5187 206.865 55.4361 223.212 73 222.748M84.4922 219.994C80.6833 221.769 76.7804 222.648 73 222.748M46.5 100C34.4972 76.9577 53.0015 61.9302 71.5058 68.4421M44.983 132.334C34.6651 133.5 27.9789 153.873 42.9825 162.389" stroke="white" stroke-width="5" stroke-linecap="round"/>
<path d="M116.5 65C116.5 60 110.5 58 107 60M117 112.5C116.5 105.5 105.5 104 101 104M117.5 178C113.566 187.75 106.5 192 94 193M117.5 152.5C117 148.5 111 145.5 108 144.5" stroke="white" stroke-width="5" stroke-linecap="round"/>
<mask id="path-4-inside-1_2_12" fill="white">
<path d="M125 21C125 12.7157 131.742 5.90319 139.962 6.93589C166.271 10.2413 190.904 22.1985 209.853 41.1471C232.357 63.6515 245 94.1739 245 126C245 157.826 232.357 188.348 209.853 210.853C190.904 229.801 166.271 241.759 139.962 245.064C131.742 246.097 125 239.284 125 231L125 126V21Z"/>
</mask>
<path d="M125 21C125 12.7157 131.742 5.90319 139.962 6.93589C166.271 10.2413 190.904 22.1985 209.853 41.1471C232.357 63.6515 245 94.1739 245 126C245 157.826 232.357 188.348 209.853 210.853C190.904 229.801 166.271 241.759 139.962 245.064C131.742 246.097 125 239.284 125 231L125 126V21Z" fill="black" stroke="white" stroke-width="16" mask="url(#path-4-inside-1_2_12)"/>
<path d="M174.439 169.091V78.1818H180.263V169.091H174.439ZM192.656 106.378C192.277 103.016 190.715 100.412 187.969 98.5653C185.223 96.6951 181.766 95.7599 177.599 95.7599C174.616 95.7599 172.036 96.2334 169.858 97.1804C167.68 98.1037 165.987 99.3821 164.78 101.016C163.596 102.625 163.004 104.46 163.004 106.52C163.004 108.248 163.407 109.74 164.212 110.994C165.04 112.249 166.117 113.303 167.443 114.155C168.793 114.983 170.237 115.682 171.776 116.25C173.314 116.795 174.794 117.244 176.214 117.599L183.317 119.446C185.637 120.014 188.016 120.784 190.455 121.754C192.893 122.725 195.154 124.003 197.237 125.589C199.321 127.176 201.001 129.141 202.28 131.484C203.582 133.828 204.233 136.634 204.233 139.901C204.233 144.02 203.168 147.678 201.037 150.874C198.93 154.07 195.864 156.591 191.839 158.438C187.839 160.284 182.997 161.207 177.315 161.207C171.87 161.207 167.159 160.343 163.182 158.615C159.205 156.887 156.091 154.437 153.842 151.264C151.593 148.068 150.35 144.28 150.114 139.901H161.122C161.335 142.528 162.188 144.718 163.679 146.47C165.194 148.198 167.124 149.489 169.467 150.341C171.835 151.17 174.427 151.584 177.244 151.584C180.346 151.584 183.104 151.098 185.518 150.128C187.957 149.134 189.875 147.76 191.271 146.009C192.668 144.233 193.366 142.161 193.366 139.794C193.366 137.64 192.751 135.876 191.52 134.503C190.313 133.13 188.667 131.993 186.584 131.094C184.524 130.194 182.192 129.401 179.588 128.714L170.994 126.371C165.17 124.785 160.554 122.453 157.145 119.375C153.759 116.297 152.067 112.225 152.067 107.159C152.067 102.969 153.203 99.3111 155.476 96.1861C157.749 93.0611 160.826 90.6345 164.709 88.9062C168.591 87.1544 172.971 86.2784 177.848 86.2784C182.772 86.2784 187.116 87.1425 190.881 88.8707C194.669 90.599 197.652 92.9782 199.83 96.0085C202.008 99.0151 203.144 102.472 203.239 106.378H192.656Z" fill="white"/>
</svg>
